<?xml version="1.0" encoding="UTF-8" standalone="no"?>
<!DOCTYPE svg PUBLIC "-//W3C//DTD SVG 1.1//EN" "http://www.w3.org/Graphics/SVG/1.1/DTD/svg11.dtd">
<svg width="100%" height="100%" viewBox="0 0 363 363" version="1.1" xmlns="http://www.w3.org/2000/svg" xmlns:xlink="http://www.w3.org/1999/xlink" xml:space="preserve" xmlns:serif="http://www.serif.com/" style="fill-rule:evenodd;clip-rule:evenodd;stroke-linejoin:round;stroke-miterlimit:2;">
    <g transform="matrix(1.1514,0,0,1.1514,-106.505,-113.528)">
        <circle cx="249.7" cy="255.8" r="157.2" style="fill:rgb(68,177,255);"/>
    </g>
    <g transform="matrix(1,0,0,1,-68.6995,-74.7995)">
        <path d="M371.5,396.5L133.9,396.5C131.5,396.5 129.5,394.5 129.5,392.1L129.5,257.3L375.9,257.3L375.9,392C375.9,394.5 373.9,396.5 371.5,396.5Z" style="fill:rgb(89,98,115);fill-rule:nonzero;"/>
    </g>
    <g transform="matrix(1,0,0,1,-68.6995,-74.7995)">
        <path d="M365.6,390.9L139.8,390.9C134.1,390.9 129.5,386.3 129.5,380.6L129.5,251.8L375.9,251.8L375.9,380.7C375.9,386.3 371.3,390.9 365.6,390.9Z" style="fill:rgb(253,254,255);fill-rule:nonzero;"/>
    </g>
    <g transform="matrix(1,0,0,1,-68.6995,-74.7995)">
        <path d="M278.5,383.1L227,383.1C225.6,383.1 224.4,381.9 224.4,380.5L224.4,356.9C224.4,355.5 225.6,354.3 227,354.3L278.5,354.3C279.9,354.3 281.1,355.5 281.1,356.9L281.1,380.5C281,381.9 279.9,383.1 278.5,383.1Z" style="fill:rgb(89,98,115);fill-rule:nonzero;"/>
    </g>
    <g transform="matrix(1,0,0,1,-68.6995,-74.7995)">
        <rect x="152.3" y="260.6" width="13.8" height="6.7" style="fill:rgb(89,94,101);"/>
    </g>
    <g transform="matrix(1,0,0,1,-68.6995,-74.7995)">
        <rect x="169.2" y="260.6" width="13.8" height="6.7" style="fill:rgb(89,94,101);"/>
    </g>
    <g transform="matrix(1,0,0,1,-68.6995,-74.7995)">
        <rect x="186.2" y="260.6" width="13.8" height="6.7" style="fill:rgb(89,94,101);"/>
    </g>
    <g transform="matrix(1,0,0,1,-68.6995,-74.7995)">
        <rect x="203.1" y="260.6" width="13.8" height="6.7" style="fill:rgb(89,94,101);"/>
    </g>
    <g transform="matrix(1,0,0,1,-68.6995,-74.7995)">
        <rect x="220" y="260.6" width="13.8" height="6.7" style="fill:rgb(89,94,101);"/>
    </g>
    <g transform="matrix(1,0,0,1,-68.6995,-74.7995)">
        <rect x="237" y="260.6" width="13.8" height="6.7" style="fill:rgb(89,94,101);"/>
    </g>
    <g transform="matrix(1,0,0,1,-68.6995,-74.7995)">
        <rect x="253.9" y="260.6" width="13.8" height="6.7" style="fill:rgb(89,94,101);"/>
    </g>
    <g transform="matrix(1,0,0,1,-68.6995,-74.7995)">
        <rect x="270.8" y="260.6" width="13.8" height="6.7" style="fill:rgb(89,94,101);"/>
    </g>
    <g transform="matrix(1,0,0,1,-68.6995,-74.7995)">
        <rect x="287.7" y="260.6" width="13.8" height="6.7" style="fill:rgb(89,94,101);"/>
    </g>
    <g transform="matrix(1,0,0,1,-68.6995,-74.7995)">
        <rect x="304.7" y="260.6" width="13.8" height="6.7" style="fill:rgb(89,94,101);"/>
    </g>
    <g transform="matrix(1,0,0,1,-68.6995,-74.7995)">
        <rect x="321.6" y="260.6" width="13.8" height="6.7" style="fill:rgb(89,94,101);"/>
    </g>
    <g transform="matrix(1,0,0,1,-68.6995,-74.7995)">
        <rect x="339.2" y="260.6" width="13.8" height="6.7" style="fill:rgb(89,94,101);"/>
    </g>
    <g transform="matrix(1,0,0,1,-68.6995,-74.7995)">
        <path d="M368.3,104.1L137,104.1C132.8,104.1 129.4,107.5 129.4,111.7L129.4,251.8L375.8,251.8L375.8,111.7C375.9,107.5 372.5,104.1 368.3,104.1Z" style="fill:rgb(64,72,86);fill-rule:nonzero;"/>
    </g>
    <g transform="matrix(1,0,0,1,-68.6995,-74.7995)">
        <rect x="139.8" y="116.4" width="225.8" height="122.2" style="fill:rgb(253,254,255);"/>
    </g>
    <g transform="matrix(1,0,0,1,-68.6995,-74.7995)">
        <rect x="152.3" y="331.9" width="13.8" height="14.4" style="fill:rgb(89,94,101);"/>
        <rect x="169.2" y="331.9" width="13.8" height="14.4" style="fill:rgb(89,94,101);"/>
        <rect x="186.2" y="331.9" width="13.8" height="14.4" style="fill:rgb(89,94,101);"/>
        <rect x="304.7" y="331.9" width="13.8" height="14.4" style="fill:rgb(89,94,101);"/>
        <rect x="287.8" y="331.9" width="13.8" height="14.4" style="fill:rgb(89,94,101);"/>
        <rect x="203.1" y="331.9" width="81.6" height="14.4" style="fill:rgb(89,94,101);"/>
        <rect x="321.7" y="331.9" width="13.8" height="14.4" style="fill:rgb(89,94,101);"/>
        <rect x="339.2" y="331.9" width="13.8" height="14.4" style="fill:rgb(89,94,101);"/>
    </g>
    <g transform="matrix(1,0,0,1,-68.6995,-74.7995)">
        <rect x="152.3" y="333" width="13.8" height="14.4" style="fill:rgb(210,213,217);"/>
        <rect x="169.2" y="333" width="13.8" height="14.4" style="fill:rgb(210,213,217);"/>
        <rect x="186.2" y="333" width="13.8" height="14.4" style="fill:rgb(210,213,217);"/>
        <rect x="304.7" y="333" width="13.8" height="14.4" style="fill:rgb(210,213,217);"/>
        <rect x="287.8" y="333" width="13.8" height="14.4" style="fill:rgb(210,213,217);"/>
        <rect x="203.1" y="333" width="81.6" height="14.4" style="fill:rgb(210,213,217);"/>
        <rect x="321.7" y="333" width="13.8" height="14.4" style="fill:rgb(210,213,217);"/>
        <rect x="339.2" y="333" width="13.8" height="14.4" style="fill:rgb(210,213,217);"/>
    </g>
    <g transform="matrix(1,0,0,1,-68.6995,-74.7995)">
        <rect x="152.4" y="312.8" width="47.6" height="14.4" style="fill:rgb(89,94,101);"/>
        <rect x="203.1" y="312.8" width="13.8" height="14.4" style="fill:rgb(89,94,101);"/>
        <rect x="220.1" y="312.8" width="13.8" height="14.4" style="fill:rgb(89,94,101);"/>
        <rect x="237" y="312.8" width="13.8" height="14.4" style="fill:rgb(89,94,101);"/>
        <rect x="253.9" y="312.8" width="13.8" height="14.4" style="fill:rgb(89,94,101);"/>
        <rect x="270.9" y="312.8" width="13.8" height="14.4" style="fill:rgb(89,94,101);"/>
        <rect x="287.8" y="312.8" width="13.8" height="14.4" style="fill:rgb(89,94,101);"/>
        <rect x="304.7" y="312.8" width="48.3" height="14.4" style="fill:rgb(89,94,101);"/>
    </g>
    <g transform="matrix(1,0,0,1,-68.6995,-74.7995)">
        <rect x="152.4" y="313.9" width="47.6" height="14.4" style="fill:rgb(210,213,217);"/>
        <rect x="203.1" y="313.9" width="13.8" height="14.4" style="fill:rgb(210,213,217);"/>
        <rect x="220" y="313.9" width="13.8" height="14.4" style="fill:rgb(210,213,217);"/>
        <rect x="236.9" y="313.9" width="13.8" height="14.4" style="fill:rgb(210,213,217);"/>
        <rect x="253.9" y="313.9" width="13.8" height="14.4" style="fill:rgb(210,213,217);"/>
        <rect x="270.8" y="313.9" width="13.8" height="14.4" style="fill:rgb(210,213,217);"/>
        <rect x="287.8" y="313.9" width="13.8" height="14.4" style="fill:rgb(210,213,217);"/>
        <rect x="304.7" y="313.9" width="48.3" height="14.4" style="fill:rgb(210,213,217);"/>
    </g>
    <g transform="matrix(1,0,0,1,-68.6995,-74.7995)">
        <rect x="152.3" y="274.6" width="13.8" height="14.4" style="fill:rgb(89,94,101);"/>
        <rect x="169.2" y="274.6" width="13.8" height="14.4" style="fill:rgb(89,94,101);"/>
        <rect x="186.2" y="274.6" width="13.8" height="14.4" style="fill:rgb(89,94,101);"/>
        <rect x="203.1" y="274.6" width="13.8" height="14.4" style="fill:rgb(89,94,101);"/>
        <rect x="220.1" y="274.6" width="13.8" height="14.4" style="fill:rgb(89,94,101);"/>
        <rect x="237" y="274.6" width="13.8" height="14.4" style="fill:rgb(89,94,101);"/>
        <rect x="253.9" y="274.6" width="13.8" height="14.4" style="fill:rgb(89,94,101);"/>
        <rect x="270.9" y="274.6" width="13.8" height="14.4" style="fill:rgb(89,94,101);"/>
        <rect x="287.8" y="274.6" width="13.8" height="14.4" style="fill:rgb(89,94,101);"/>
        <rect x="304.7" y="274.6" width="13.8" height="14.4" style="fill:rgb(89,94,101);"/>
        <rect x="321.7" y="274.6" width="13.8" height="14.4" style="fill:rgb(89,94,101);"/>
        <rect x="339.2" y="274.6" width="13.8" height="14.4" style="fill:rgb(89,94,101);"/>
    </g>
    <g transform="matrix(1,0,0,1,-68.6995,-74.7995)">
        <rect x="152.3" y="275.7" width="13.8" height="14.4" style="fill:rgb(210,213,217);"/>
        <rect x="169.2" y="275.7" width="13.8" height="14.4" style="fill:rgb(210,213,217);"/>
        <rect x="186.2" y="275.7" width="13.8" height="14.4" style="fill:rgb(210,213,217);"/>
        <rect x="203.1" y="275.7" width="13.8" height="14.4" style="fill:rgb(210,213,217);"/>
        <rect x="220.1" y="275.7" width="13.8" height="14.4" style="fill:rgb(210,213,217);"/>
        <rect x="237" y="275.7" width="13.8" height="14.4" style="fill:rgb(210,213,217);"/>
        <rect x="253.9" y="275.7" width="13.8" height="14.4" style="fill:rgb(210,213,217);"/>
        <rect x="270.9" y="275.7" width="13.8" height="14.4" style="fill:rgb(210,213,217);"/>
        <rect x="287.8" y="275.7" width="13.8" height="14.4" style="fill:rgb(210,213,217);"/>
        <rect x="304.7" y="275.7" width="13.8" height="14.4" style="fill:rgb(210,213,217);"/>
        <rect x="321.7" y="275.7" width="13.8" height="14.4" style="fill:rgb(210,213,217);"/>
        <rect x="339.2" y="275.7" width="13.8" height="14.4" style="fill:rgb(210,213,217);"/>
    </g>
    <g transform="matrix(1,0,0,1,-68.6995,-74.7995)">
        <rect x="152.3" y="293.7" width="29.9" height="14.4" style="fill:rgb(89,94,101);"/>
        <rect x="186.2" y="293.7" width="13.8" height="14.4" style="fill:rgb(89,94,101);"/>
        <rect x="203.1" y="293.7" width="13.8" height="14.4" style="fill:rgb(89,94,101);"/>
        <rect x="220.1" y="293.7" width="13.8" height="14.4" style="fill:rgb(89,94,101);"/>
        <rect x="237" y="293.7" width="13.8" height="14.4" style="fill:rgb(89,94,101);"/>
        <rect x="253.9" y="293.7" width="13.8" height="14.4" style="fill:rgb(89,94,101);"/>
        <rect x="270.9" y="293.7" width="13.8" height="14.4" style="fill:rgb(89,94,101);"/>
        <rect x="287.8" y="293.7" width="13.8" height="14.4" style="fill:rgb(89,94,101);"/>
        <rect x="304.7" y="293.7" width="13.8" height="14.4" style="fill:rgb(89,94,101);"/>
        <rect x="321.7" y="293.7" width="31.4" height="14.4" style="fill:rgb(89,94,101);"/>
    </g>
    <g transform="matrix(1,0,0,1,-68.6995,-74.7995)">
        <rect x="152.3" y="294.8" width="29.9" height="14.4" style="fill:rgb(210,213,217);"/>
        <rect x="186.2" y="294.8" width="13.8" height="14.4" style="fill:rgb(210,213,217);"/>
        <rect x="203.1" y="294.8" width="13.8" height="14.4" style="fill:rgb(210,213,217);"/>
        <rect x="220.1" y="294.8" width="13.8" height="14.4" style="fill:rgb(210,213,217);"/>
        <rect x="237" y="294.8" width="13.8" height="14.4" style="fill:rgb(210,213,217);"/>
        <rect x="253.9" y="294.8" width="13.8" height="14.4" style="fill:rgb(210,213,217);"/>
        <rect x="270.9" y="294.8" width="13.8" height="14.4" style="fill:rgb(210,213,217);"/>
        <rect x="287.8" y="294.8" width="13.8" height="14.4" style="fill:rgb(210,213,217);"/>
        <rect x="304.7" y="294.8" width="13.8" height="14.4" style="fill:rgb(210,213,217);"/>
        <rect x="321.7" y="294.8" width="31.4" height="14.4" style="fill:rgb(210,213,217);"/>
    </g>
    <g transform="matrix(1,0,0,1,-68.6995,-74.7995)">
        <rect x="152.3" y="261.7" width="13.8" height="6.7" style="fill:rgb(210,213,217);"/>
    </g>
    <g transform="matrix(1,0,0,1,-68.6995,-74.7995)">
        <rect x="169.3" y="261.7" width="13.8" height="6.7" style="fill:rgb(210,213,217);"/>
    </g>
    <g transform="matrix(1,0,0,1,-68.6995,-74.7995)">
        <rect x="186.2" y="261.7" width="13.8" height="6.7" style="fill:rgb(210,213,217);"/>
    </g>
    <g transform="matrix(1,0,0,1,-68.6995,-74.7995)">
        <rect x="203.1" y="261.7" width="13.8" height="6.7" style="fill:rgb(210,213,217);"/>
    </g>
    <g transform="matrix(1,0,0,1,-68.6995,-74.7995)">
        <rect x="220.1" y="261.7" width="13.8" height="6.7" style="fill:rgb(210,213,217);"/>
    </g>
    <g transform="matrix(1,0,0,1,-68.6995,-74.7995)">
        <rect x="237" y="261.7" width="13.8" height="6.7" style="fill:rgb(210,213,217);"/>
    </g>
    <g transform="matrix(1,0,0,1,-68.6995,-74.7995)">
        <rect x="253.9" y="261.7" width="13.8" height="6.7" style="fill:rgb(210,213,217);"/>
    </g>
    <g transform="matrix(1,0,0,1,-68.6995,-74.7995)">
        <rect x="270.8" y="261.7" width="13.8" height="6.7" style="fill:rgb(210,213,217);"/>
    </g>
    <g transform="matrix(1,0,0,1,-68.6995,-74.7995)">
        <rect x="287.8" y="261.7" width="13.8" height="6.7" style="fill:rgb(210,213,217);"/>
    </g>
    <g transform="matrix(1,0,0,1,-68.6995,-74.7995)">
        <rect x="304.7" y="261.7" width="13.8" height="6.7" style="fill:rgb(210,213,217);"/>
    </g>
    <g transform="matrix(1,0,0,1,-68.6995,-74.7995)">
        <rect x="321.6" y="261.7" width="13.8" height="6.7" style="fill:rgb(210,213,217);"/>
    </g>
    <g transform="matrix(1,0,0,1,-68.6995,-74.7995)">
        <rect x="339.2" y="261.7" width="13.8" height="6.7" style="fill:rgb(210,213,217);"/>
    </g>
    <g transform="matrix(1,0,0,1,-68.6995,-74.7995)">
        <rect x="336.2" y="248.2" width="24.1" height="4.4" style="fill:rgb(89,98,115);"/>
    </g>
    <g transform="matrix(1,0,0,1,-68.6995,-74.7995)">
        <rect x="145" y="248.2" width="24.1" height="4.4" style="fill:rgb(89,98,115);"/>
    </g>
    <g transform="matrix(1,0,0,1,-68.6995,-74.7995)">
        <path d="M255.4,238.8L367.5,220.4L367.5,101.2L258.7,130.7L255.4,238.8Z" style="fill:rgb(216,216,216);fill-rule:nonzero;"/>
    </g>
    <g transform="matrix(1,0,0,1,-68.6995,-74.7995)">
        <path d="M253.3,239.4L361.4,209.6L361.4,90.3L253.3,119.9L253.3,239.4Z" style="fill:white;fill-rule:nonzero;"/>
    </g>
    <g transform="matrix(1,0,0,1,-68.6995,-74.7995)">
        <path d="M251.3,238.8L139.1,220.4L139.1,101.2L248,130.7L251.3,238.8Z" style="fill:rgb(216,216,216);fill-rule:nonzero;"/>
    </g>
    <g transform="matrix(1,0,0,1,-68.6995,-74.7995)">
        <path d="M253.3,119.9L253.3,239.4L145.3,209.6L145.3,90.3L199.3,105.1L215,109.4L253.3,119.9Z" style="fill:white;fill-rule:nonzero;"/>
    </g>
    <g transform="matrix(1,0,0,1,-68.6995,-74.7995)">
        <path d="M171.1,112.1L159.9,109.4L159.9,108.8L171.1,111.5L171.1,112.1Z" style="fill:rgb(204,204,204);fill-rule:nonzero;"/>
        <path d="M180.7,116.7L159.9,111.6L159.9,111L180.7,116.1L180.7,116.7Z" style="fill:rgb(204,204,204);fill-rule:nonzero;"/>
        <path d="M225.1,129.7L159.9,113.8L159.9,113.2L225.1,129.1L225.1,129.7Z" style="fill:rgb(204,204,204);fill-rule:nonzero;"/>
        <path d="M203.9,126.8L159.9,116.1L159.9,115.5L203.9,126.3L203.9,126.8Z" style="fill:rgb(204,204,204);fill-rule:nonzero;"/>
        <path d="M220.8,133L159.9,118.2L159.9,117.6L220.8,132.5L220.8,133Z" style="fill:rgb(204,204,204);fill-rule:nonzero;"/>
        <path d="M180.7,125.6L159.9,120.6L159.9,120L180.7,125.1L180.7,125.6Z" style="fill:rgb(204,204,204);fill-rule:nonzero;"/>
        <path d="M189.1,129.7L159.9,122.6L159.9,122L189.1,129.1L189.1,129.7Z" style="fill:rgb(204,204,204);fill-rule:nonzero;"/>
        <path d="M170,127.4L159.9,124.9L159.9,124.3L170,126.8L170,127.4Z" style="fill:rgb(204,204,204);fill-rule:nonzero;"/>
        <path d="M190.6,134.8L159.9,127.4L159.9,126.8L190.6,134.2L190.6,134.8Z" style="fill:rgb(204,204,204);fill-rule:nonzero;"/>
        <path d="M203.9,140.3L159.9,129.7L159.9,129.1L203.9,139.7L203.9,140.3Z" style="fill:rgb(204,204,204);fill-rule:nonzero;"/>
        <path d="M180.7,137L159.9,132.1L159.9,131.5L180.7,136.5L180.7,137Z" style="fill:rgb(204,204,204);fill-rule:nonzero;"/>
        <path d="M235.5,150.2L192.7,139.9L192.7,139.3L235.5,149.6L235.5,150.2Z" style="fill:rgb(204,204,204);fill-rule:nonzero;"/>
        <path d="M220.1,144.2L205.5,140.7L205.5,140.1L220.1,143.6L220.1,144.2Z" style="fill:rgb(204,204,204);fill-rule:nonzero;"/>
        <path d="M229.9,137.6L195.1,129.1L195.1,128.5L229.9,137L229.9,137.6Z" style="fill:rgb(204,204,204);fill-rule:nonzero;"/>
        <path d="M200.7,121.5L183.3,117.3L183.3,116.7L200.7,120.9L200.7,121.5Z" style="fill:rgb(204,204,204);fill-rule:nonzero;"/>
        <path d="M227.3,128L202.7,122L202.7,121.4L227.3,127.4L227.3,128Z" style="fill:rgb(204,204,204);fill-rule:nonzero;"/>
        <path d="M171.1,137.1L159.9,134.4L159.9,133.8L171.1,136.5L171.1,137.1Z" style="fill:rgb(204,204,204);fill-rule:nonzero;"/>
        <path d="M180.7,141.5L159.9,136.6L159.9,136L180.7,140.9L180.7,141.5Z" style="fill:rgb(204,204,204);fill-rule:nonzero;"/>
        <path d="M225,154.3L159.9,138.8L159.9,138.2L225,153.7L225,154.3Z" style="fill:rgb(204,204,204);fill-rule:nonzero;"/>
        <path d="M203.8,151.6L159.9,141.1L159.9,140.5L203.8,151L203.8,151.6Z" style="fill:rgb(204,204,204);fill-rule:nonzero;"/>
        <path d="M220.7,157.6L159.9,143.2L159.9,142.6L220.7,157.1L220.7,157.6Z" style="fill:rgb(204,204,204);fill-rule:nonzero;"/>
        <path d="M180.7,150.5L159.9,145.6L159.9,145L180.7,149.9L180.7,150.5Z" style="fill:rgb(204,204,204);fill-rule:nonzero;"/>
        <path d="M189,154.5L159.9,147.6L159.9,147L189,153.9L189,154.5Z" style="fill:rgb(204,204,204);fill-rule:nonzero;"/>
        <path d="M170,152.2L159.9,149.9L159.9,149.3L170,151.7L170,152.2Z" style="fill:rgb(204,204,204);fill-rule:nonzero;"/>
        <path d="M190.5,159.6L159.9,152.4L159.9,151.8L190.5,159L190.5,159.6Z" style="fill:rgb(204,204,204);fill-rule:nonzero;"/>
        <path d="M203.8,165L159.9,154.7L159.9,154.1L203.8,164.4L203.8,165Z" style="fill:rgb(204,204,204);fill-rule:nonzero;"/>
        <path d="M180.7,161.8L159.9,157L159.9,156.4L180.7,161.3L180.7,161.8Z" style="fill:rgb(204,204,204);fill-rule:nonzero;"/>
        <path d="M235.3,174.6L192.7,164.6L192.7,164.1L235.3,174L235.3,174.6Z" style="fill:rgb(204,204,204);fill-rule:nonzero;"/>
        <path d="M219.9,168.7L205.4,165.3L205.4,164.8L219.9,168.2L219.9,168.7Z" style="fill:rgb(204,204,204);fill-rule:nonzero;"/>
        <path d="M229.8,162.1L195,153.9L195,153.3L229.8,161.5L229.8,162.1Z" style="fill:rgb(204,204,204);fill-rule:nonzero;"/>
        <path d="M200.6,146.3L183.2,142.1L183.2,141.5L200.6,145.7L200.6,146.3Z" style="fill:rgb(204,204,204);fill-rule:nonzero;"/>
        <path d="M227.1,152.6L202.7,146.8L202.7,146.2L227.1,152L227.1,152.6Z" style="fill:rgb(204,204,204);fill-rule:nonzero;"/>
    </g>
    <g transform="matrix(1,0,0,1,-68.6995,-74.7995)">
        <path d="M171,162.1L159.9,159.5L159.9,158.9L171,161.5L171,162.1Z" style="fill:rgb(204,204,204);fill-rule:nonzero;"/>
        <path d="M180.7,166.5L159.9,161.7L159.9,161.1L180.7,165.9L180.7,166.5Z" style="fill:rgb(204,204,204);fill-rule:nonzero;"/>
        <path d="M224.9,178.9L159.9,163.9L159.9,163.3L224.9,178.3L224.9,178.9Z" style="fill:rgb(204,204,204);fill-rule:nonzero;"/>
        <path d="M203.8,176.3L159.9,166.2L159.9,165.6L203.8,175.8L203.8,176.3Z" style="fill:rgb(204,204,204);fill-rule:nonzero;"/>
        <path d="M220.6,182.3L159.9,168.3L159.9,167.7L220.6,181.7L220.6,182.3Z" style="fill:rgb(204,204,204);fill-rule:nonzero;"/>
        <path d="M180.6,175.4L159.9,170.6L159.9,170L180.6,174.8L180.6,175.4Z" style="fill:rgb(204,204,204);fill-rule:nonzero;"/>
        <path d="M188.9,179.3L159.9,172.6L159.9,172.1L189,178.7L188.9,179.3Z" style="fill:rgb(204,204,204);fill-rule:nonzero;"/>
        <path d="M170,177.2L159.9,174.9L159.9,174.3L170,176.6L170,177.2Z" style="fill:rgb(204,204,204);fill-rule:nonzero;"/>
        <path d="M190.4,184.4L159.9,177.4L159.9,176.8L190.4,183.8L190.4,184.4Z" style="fill:rgb(204,204,204);fill-rule:nonzero;"/>
        <path d="M203.7,189.7L159.9,179.7L159.9,179.1L203.7,189.1L203.7,189.7Z" style="fill:rgb(204,204,204);fill-rule:nonzero;"/>
        <path d="M180.6,186.7L159.9,182L159.9,181.4L180.6,186.1L180.6,186.7Z" style="fill:rgb(204,204,204);fill-rule:nonzero;"/>
        <path d="M235.2,199.1L192.6,189.4L192.6,188.9L235.2,198.6L235.2,199.1Z" style="fill:rgb(204,204,204);fill-rule:nonzero;"/>
        <path d="M219.8,193.4L205.3,190.1L205.4,189.5L219.8,192.8L219.8,193.4Z" style="fill:rgb(204,204,204);fill-rule:nonzero;"/>
        <path d="M229.6,186.7L194.9,178.7L194.9,178.1L229.6,186.1L229.6,186.7Z" style="fill:rgb(204,204,204);fill-rule:nonzero;"/>
        <path d="M200.5,171.1L183.2,167.1L183.2,166.5L200.5,170.5L200.5,171.1Z" style="fill:rgb(204,204,204);fill-rule:nonzero;"/>
        <path d="M227,177.3L202.6,171.6L202.6,171L227,176.7L227,177.3Z" style="fill:rgb(204,204,204);fill-rule:nonzero;"/>
        <path d="M171,186.9L159.9,184.3L159.9,183.7L171,186.3L171,186.9Z" style="fill:rgb(204,204,204);fill-rule:nonzero;"/>
        <path d="M180.6,191.2L159.9,186.5L159.9,185.9L180.6,190.6L180.6,191.2Z" style="fill:rgb(204,204,204);fill-rule:nonzero;"/>
        <path d="M224.7,203.3L159.9,188.7L159.9,188.1L224.7,202.7L224.7,203.3Z" style="fill:rgb(204,204,204);fill-rule:nonzero;"/>
        <path d="M203.7,200.8L159.9,191L159.9,190.4L203.7,200.3L203.7,200.8Z" style="fill:rgb(204,204,204);fill-rule:nonzero;"/>
        <path d="M220.5,206.7L159.9,193.1L159.9,192.5L220.5,206.1L220.5,206.7Z" style="fill:rgb(204,204,204);fill-rule:nonzero;"/>
        <path d="M180.6,200L159.9,195.4L159.9,194.8L180.6,199.5L180.6,200Z" style="fill:rgb(204,204,204);fill-rule:nonzero;"/>
        <path d="M188.9,203.9L159.9,197.4L159.9,196.8L188.9,203.3L188.9,203.9Z" style="fill:rgb(204,204,204);fill-rule:nonzero;"/>
        <path d="M170,201.9L159.9,199.7L159.9,199.1L170,201.3L170,201.9Z" style="fill:rgb(204,204,204);fill-rule:nonzero;"/>
        <path d="M190.4,208.9L159.9,202.1L159.9,201.6L190.4,208.4L190.4,208.9Z" style="fill:rgb(204,204,204);fill-rule:nonzero;"/>
        <path d="M203.6,214.1L159.9,204.4L159.9,203.9L203.6,213.6L203.6,214.1Z" style="fill:rgb(204,204,204);fill-rule:nonzero;"/>
        <path d="M180.6,211.3L159.9,206.7L159.9,206.1L180.6,210.7L180.6,211.3Z" style="fill:rgb(204,204,204);fill-rule:nonzero;"/>
        <path d="M235,223.4L192.5,214L192.5,213.4L235,222.8L235,223.4Z" style="fill:rgb(204,204,204);fill-rule:nonzero;"/>
        <path d="M219.7,217.7L205.3,214.5L205.3,213.9L219.7,217.1L219.7,217.7Z" style="fill:rgb(204,204,204);fill-rule:nonzero;"/>
        <path d="M229.5,211L194.9,203.2L194.9,202.7L229.5,210.4L229.5,211Z" style="fill:rgb(204,204,204);fill-rule:nonzero;"/>
        <path d="M200.5,195.7L183.1,191.7L183.1,191.2L200.5,195.1L200.5,195.7Z" style="fill:rgb(204,204,204);fill-rule:nonzero;"/>
        <path d="M226.9,201.6L202.5,196.1L202.5,195.5L226.9,201.1L226.9,201.6Z" style="fill:rgb(204,204,204);fill-rule:nonzero;"/>
    </g>
    <g transform="matrix(1,0,0,1,-68.6995,-74.7995)">
        <g>
            <path d="M277.6,123.8L268,127.4L268,126.9L277.6,123.3L277.6,123.8Z" style="fill:rgb(204,204,204);fill-rule:nonzero;"/>
        </g>
        <g>
            <path d="M286.1,122.7L268,129.4L268,128.8L286,122.1L286.1,122.7Z" style="fill:rgb(204,204,204);fill-rule:nonzero;"/>
        </g>
        <g>
            <path d="M325.9,109.9L268,131.4L268,130.8L325.9,109.3L325.9,109.9Z" style="fill:rgb(204,204,204);fill-rule:nonzero;"/>
        </g>
        <g>
            <path d="M306.8,119.2L268,133.5L268,133L306.7,118.6L306.8,119.2Z" style="fill:rgb(204,204,204);fill-rule:nonzero;"/>
        </g>
        <g>
            <path d="M322.2,115.4L268,135.4L268,134.9L322.2,114.9L322.2,115.4Z" style="fill:rgb(204,204,204);fill-rule:nonzero;"/>
        </g>
        <g>
            <path d="M286.2,130.9L268,137.6L268,137.1L286.2,130.4L286.2,130.9Z" style="fill:rgb(204,204,204);fill-rule:nonzero;"/>
        </g>
        <g>
            <path d="M293.7,130L268,139.5L268,139L293.7,129.5L293.7,130Z" style="fill:rgb(204,204,204);fill-rule:nonzero;"/>
        </g>
        <g>
            <path d="M276.9,138.4L268,141.6L268,141.1L276.9,137.8L276.9,138.4Z" style="fill:rgb(204,204,204);fill-rule:nonzero;"/>
        </g>
        <g>
            <path d="M295.2,134L268,144L268,143.4L295.1,133.4L295.2,134Z" style="fill:rgb(204,204,204);fill-rule:nonzero;"/>
        </g>
        <g>
            <path d="M307.3,131.7L268,146.2L268,145.6L307.3,131.2L307.3,131.7Z" style="fill:rgb(204,204,204);fill-rule:nonzero;"/>
        </g>
        <g>
            <path d="M286.4,141.6L268,148.3L268,147.8L286.4,141L286.4,141.6Z" style="fill:rgb(204,204,204);fill-rule:nonzero;"/>
        </g>
        <g>
            <path d="M336.8,123.1L297.2,137.6L297.2,137.1L336.8,122.6L336.8,123.1Z" style="fill:rgb(204,204,204);fill-rule:nonzero;"/>
        </g>
        <g>
            <path d="M322.2,126.3L308.8,131.2L308.8,130.6L322.2,125.7L322.2,126.3Z" style="fill:rgb(204,204,204);fill-rule:nonzero;"/>
        </g>
        <g>
            <path d="M330.7,114.5L299,126.2L299,125.6L330.7,113.9L330.7,114.5Z" style="fill:rgb(204,204,204);fill-rule:nonzero;"/>
        </g>
        <g>
            <path d="M303.7,116.1L288.3,121.8L288.3,121.3L303.7,115.6L303.7,116.1Z" style="fill:rgb(204,204,204);fill-rule:nonzero;"/>
        </g>
        <g>
            <path d="M327.7,107.2L305.5,115.4L305.5,114.9L327.7,106.6L327.7,107.2Z" style="fill:rgb(204,204,204);fill-rule:nonzero;"/>
        </g>
        <g>
            <path d="M277.9,147L268,150.6L268,150L277.9,146.4L277.9,147Z" style="fill:rgb(204,204,204);fill-rule:nonzero;"/>
        </g>
        <g>
            <path d="M286.5,145.9L268,152.6L268,152.1L286.5,145.3L286.5,145.9Z" style="fill:rgb(204,204,204);fill-rule:nonzero;"/>
        </g>
        <g>
            <path d="M327.4,133.1L268,154.7L268,154.2L327.4,132.5L327.4,133.1Z" style="fill:rgb(204,204,204);fill-rule:nonzero;"/>
        </g>
        <g>
            <path d="M307.8,142.5L268,157L268,156.4L307.7,142L307.8,142.5Z" style="fill:rgb(204,204,204);fill-rule:nonzero;"/>
        </g>
        <g>
            <path d="M323.6,138.8L268,159L268,158.5L323.6,138.3L323.6,138.8Z" style="fill:rgb(204,204,204);fill-rule:nonzero;"/>
        </g>
        <g>
            <path d="M286.7,154.6L268,161.3L268,160.8L286.7,154L286.7,154.6Z" style="fill:rgb(204,204,204);fill-rule:nonzero;"/>
        </g>
        <g>
            <path d="M294.3,153.8L268,163.3L268,162.7L294.3,153.2L294.3,153.8Z" style="fill:rgb(204,204,204);fill-rule:nonzero;"/>
        </g>
        <g>
            <path d="M277.1,162.3L268,165.5L268,165L277.1,161.7L277.1,162.3Z" style="fill:rgb(204,204,204);fill-rule:nonzero;"/>
        </g>
        <g>
            <path d="M295.9,158L268,168L268,167.4L295.8,157.4L295.9,158Z" style="fill:rgb(204,204,204);fill-rule:nonzero;"/>
        </g>
        <g>
            <path d="M308.3,155.8L268,170.3L268,169.7L308.3,155.2L308.3,155.8Z" style="fill:rgb(204,204,204);fill-rule:nonzero;"/>
        </g>
        <g>
            <path d="M286.9,165.8L268,172.6L268,172L286.9,165.2L286.9,165.8Z" style="fill:rgb(204,204,204);fill-rule:nonzero;"/>
        </g>
        <g>
            <path d="M338.6,147.2L298,161.8L298,161.2L338.6,146.7L338.6,147.2Z" style="fill:rgb(204,204,204);fill-rule:nonzero;"/>
        </g>
        <g>
            <path d="M323.6,150.3L309.9,155.2L309.9,154.7L323.6,149.7L323.6,150.3Z" style="fill:rgb(204,204,204);fill-rule:nonzero;"/>
        </g>
        <g>
            <path d="M332.4,138L299.8,149.8L299.8,149.2L332.3,137.4L332.4,138Z" style="fill:rgb(204,204,204);fill-rule:nonzero;"/>
        </g>
        <g>
            <path d="M304.6,139.3L288.8,145.1L288.8,144.5L304.6,138.7L304.6,139.3Z" style="fill:rgb(204,204,204);fill-rule:nonzero;"/>
        </g>
        <g>
            <path d="M329.2,130.3L306.5,138.6L306.4,138L329.2,129.7L329.2,130.3Z" style="fill:rgb(204,204,204);fill-rule:nonzero;"/>
        </g>
    </g>
    <g transform="matrix(1,0,0,1,-68.6995,-74.7995)">
        <g>
            <path d="M278.1,171.5L268,175.1L268,174.5L278.1,170.9L278.1,171.5Z" style="fill:rgb(204,204,204);fill-rule:nonzero;"/>
        </g>
        <g>
            <path d="M287,170.5L268,177.3L268,176.7L287,169.9L287,170.5Z" style="fill:rgb(204,204,204);fill-rule:nonzero;"/>
        </g>
        <g>
            <path d="M329,157.7L268,179.5L268,178.9L329,157.2L329,157.7Z" style="fill:rgb(204,204,204);fill-rule:nonzero;"/>
        </g>
        <g>
            <path d="M308.8,167.4L268,181.9L268,181.3L308.8,166.8L308.8,167.4Z" style="fill:rgb(204,204,204);fill-rule:nonzero;"/>
        </g>
        <g>
            <path d="M325.1,163.7L268,184.1L268,183.5L325.1,163.1L325.1,163.7Z" style="fill:rgb(204,204,204);fill-rule:nonzero;"/>
        </g>
        <g>
            <path d="M287.2,179.7L268,186.5L268,185.9L287.2,179.1L287.2,179.7Z" style="fill:rgb(204,204,204);fill-rule:nonzero;"/>
        </g>
        <g>
            <path d="M295,179L268,188.6L268,187.9L295,178.4L295,179Z" style="fill:rgb(204,204,204);fill-rule:nonzero;"/>
        </g>
        <g>
            <path d="M277.3,187.6L268,190.9L268,190.3L277.3,187L277.3,187.6Z" style="fill:rgb(204,204,204);fill-rule:nonzero;"/>
        </g>
        <g>
            <path d="M296.6,183.4L268,193.5L268,192.9L296.6,182.8L296.6,183.4Z" style="fill:rgb(204,204,204);fill-rule:nonzero;"/>
        </g>
        <g>
            <path d="M309.4,181.3L268,195.9L268,195.3L309.4,180.7L309.4,181.3Z" style="fill:rgb(204,204,204);fill-rule:nonzero;"/>
        </g>
        <g>
            <path d="M287.4,191.5L268,198.4L268,197.7L287.4,190.9L287.4,191.5Z" style="fill:rgb(204,204,204);fill-rule:nonzero;"/>
        </g>
        <g>
            <path d="M340.6,172.8L298.8,187.5L298.8,186.9L340.5,172.2L340.6,172.8Z" style="fill:rgb(204,204,204);fill-rule:nonzero;"/>
        </g>
        <g>
            <path d="M325.1,175.8L311,180.8L311,180.2L325.1,175.2L325.1,175.8Z" style="fill:rgb(204,204,204);fill-rule:nonzero;"/>
        </g>
        <g>
            <path d="M334.1,163L300.6,174.9L300.6,174.3L334.1,162.4L334.1,163Z" style="fill:rgb(204,204,204);fill-rule:nonzero;"/>
        </g>
        <g>
            <path d="M305.6,163.9L289.3,169.7L289.3,169.1L305.6,163.3L305.6,163.9Z" style="fill:rgb(204,204,204);fill-rule:nonzero;"/>
        </g>
        <g>
            <path d="M330.9,154.8L307.5,163.2L307.5,162.6L330.8,154.2L330.9,154.8Z" style="fill:rgb(204,204,204);fill-rule:nonzero;"/>
        </g>
        <g>
            <path d="M278.4,197.2L268,200.8L268,200.2L278.4,196.6L278.4,197.2Z" style="fill:rgb(204,204,204);fill-rule:nonzero;"/>
        </g>
        <g>
            <path d="M287.5,196.3L268,203.1L268,202.5L287.5,195.7L287.5,196.3Z" style="fill:rgb(204,204,204);fill-rule:nonzero;"/>
        </g>
        <g>
            <path d="M330.7,183.6L268,205.5L268,204.8L330.6,182.9L330.7,183.6Z" style="fill:rgb(204,204,204);fill-rule:nonzero;"/>
        </g>
        <g>
            <path d="M309.9,193.4L268,208L268,207.3L309.9,192.7L309.9,193.4Z" style="fill:rgb(204,204,204);fill-rule:nonzero;"/>
        </g>
        <g>
            <path d="M326.7,189.8L268,210.2L268,209.6L326.7,189.2L326.7,189.8Z" style="fill:rgb(204,204,204);fill-rule:nonzero;"/>
        </g>
        <g>
            <path d="M287.7,205.9L268,212.8L268,212.1L287.7,205.3L287.7,205.9Z" style="fill:rgb(204,204,204);fill-rule:nonzero;"/>
        </g>
        <g>
            <path d="M295.8,205.4L268,215L268,214.3L295.8,204.7L295.8,205.4Z" style="fill:rgb(204,204,204);fill-rule:nonzero;"/>
        </g>
        <g>
            <path d="M277.6,214.2L268,217.5L268,216.8L277.6,213.5L277.6,214.2Z" style="fill:rgb(204,204,204);fill-rule:nonzero;"/>
        </g>
        <g>
            <path d="M297.4,210.1L268,220.2L268,219.6L297.4,209.4L297.4,210.1Z" style="fill:rgb(204,204,204);fill-rule:nonzero;"/>
        </g>
        <g>
            <path d="M310.6,208.1L268,222.8L268,222.1L310.6,207.5L310.6,208.1Z" style="fill:rgb(204,204,204);fill-rule:nonzero;"/>
        </g>
        <g>
            <path d="M288,218.5L268,225.3L268,224.7L287.9,217.8L288,218.5Z" style="fill:rgb(204,204,204);fill-rule:nonzero;"/>
        </g>
        <g>
            <path d="M342.6,199.7L299.7,214.5L299.7,213.8L342.6,199L342.6,199.7Z" style="fill:rgb(204,204,204);fill-rule:nonzero;"/>
        </g>
        <g>
            <path d="M326.7,202.5L312.2,207.5L312.2,206.9L326.7,201.9L326.7,202.5Z" style="fill:rgb(204,204,204);fill-rule:nonzero;"/>
        </g>
        <g>
            <path d="M335.9,189.2L301.5,201.1L301.5,200.5L335.9,188.5L335.9,189.2Z" style="fill:rgb(204,204,204);fill-rule:nonzero;"/>
        </g>
        <g>
            <path d="M306.6,189.6L289.9,195.5L289.9,194.8L306.6,189L306.6,189.6Z" style="fill:rgb(204,204,204);fill-rule:nonzero;"/>
        </g>
        <g>
            <path d="M332.6,180.5L308.6,188.9L308.5,188.3L332.6,179.9L332.6,180.5Z" style="fill:rgb(204,204,204);fill-rule:nonzero;"/>
        </g>
    </g>
    <g transform="matrix(1,0,0,1,-68.6995,-74.7995)">
        <path d="M215.3,109.4L215.3,192.2L207.4,179L199.5,183.6L199.5,105.1L215.3,109.4Z" style="fill:rgb(244,198,19);fill-rule:nonzero;"/>
    </g>
</svg>
